<svg width="226" height="49" viewBox="0 0 226 49" fill="none" xmlns="http://www.w3.org/2000/svg">
<path d="M147.487 41.709H145.689C145.679 41.6203 145.674 41.5533 145.674 41.5113C145.632 40.9712 145.511 40.6303 145.311 40.4902C145.111 40.3517 144.643 40.2832 143.903 40.2832C143.031 40.2832 142.461 40.3641 142.194 40.5229C141.925 40.6832 141.791 41.021 141.791 41.5362C141.791 42.1464 141.899 42.5137 142.119 42.6351C142.336 42.7581 143.059 42.8531 144.282 42.9184C145.729 42.9994 146.666 43.2049 147.09 43.5348C147.515 43.8648 147.728 44.5528 147.728 45.5973C147.728 46.883 147.479 47.7142 146.981 48.0894C146.483 48.4645 145.384 48.6528 143.686 48.6528C142.158 48.6528 141.145 48.4692 140.644 48.1003C140.145 47.7313 139.895 46.9858 139.895 45.8619L139.889 45.5086H141.68L141.687 45.7156C141.687 46.3927 141.805 46.8067 142.041 46.9593C142.28 47.1118 142.926 47.1881 143.987 47.1881C144.813 47.1881 145.34 47.0994 145.568 46.9266C145.796 46.7507 145.91 46.3491 145.91 45.714C145.91 45.2455 145.823 44.9358 145.651 44.7832C145.478 44.6291 145.103 44.5357 144.529 44.5015L143.511 44.4392C141.971 44.3489 140.987 44.1372 140.56 43.7995C140.132 43.4648 139.918 42.7441 139.918 41.6405C139.918 40.5089 140.176 39.7586 140.691 39.3804C141.206 39.0068 142.236 38.8169 143.778 38.8169C145.241 38.8169 146.225 38.9897 146.734 39.3306C147.243 39.6761 147.497 40.347 147.497 41.3416L147.487 41.709Z" fill="#00AEEF"/>
<path d="M154.779 38.8169C156.544 38.8169 157.679 39.1095 158.186 39.6901C158.693 40.2738 158.947 41.5782 158.947 43.6033C158.947 45.8168 158.691 47.2115 158.181 47.7874C157.672 48.3633 156.438 48.6513 154.481 48.6513C152.718 48.6513 151.576 48.368 151.061 47.7998C150.544 47.2301 150.285 45.9771 150.285 44.0423C150.285 41.7401 150.538 40.2925 151.047 39.7026C151.554 39.1126 152.796 38.8169 154.779 38.8169ZM154.638 40.3984C153.404 40.3984 152.681 40.5571 152.472 40.8731C152.264 41.1875 152.16 42.2803 152.16 44.1497C152.16 45.5335 152.283 46.3662 152.525 46.648C152.768 46.9313 153.486 47.0729 154.68 47.0729C155.82 47.0729 156.503 46.9142 156.73 46.5966C156.957 46.2791 157.07 45.314 157.07 43.7045C157.07 42.0919 156.964 41.1377 156.748 40.842C156.533 40.5462 155.829 40.3984 154.638 40.3984Z" fill="#00AEEF"/>
<path d="M163.776 40.4367V43.0595H168.126V44.6021H163.776V48.5729H161.939V38.8926H168.379V40.4351H163.776V40.4367Z" fill="#00AEEF"/>
<path d="M175.888 40.5336V48.5748H174.051V40.5336H171.248V38.8945H178.788V40.5336H175.888Z" fill="#00AEEF"/>
<path d="M195.448 38.8945L192.852 48.5748H190.13L188.778 43.6047C188.655 43.1549 188.51 42.5556 188.345 41.8006L188.21 41.2076H188.146L188.004 41.8069L187.868 42.4046C187.769 42.8077 187.661 43.2093 187.549 43.6125L186.163 48.5748H183.467L180.951 38.8945H182.827L184.229 44.2024C184.313 44.5433 184.421 45.0134 184.549 45.6142L184.697 46.324L184.839 47.0338H184.903C184.98 46.7241 185.036 46.4875 185.075 46.324L185.245 45.6205C185.335 45.25 185.462 44.7799 185.623 44.2071L187.115 38.8945H189.276L190.734 44.2071C190.857 44.6616 190.978 45.1332 191.096 45.6205L191.26 46.324L191.43 47.0338H191.488L191.646 46.324L191.794 45.6142C191.917 45.0414 192.03 44.5667 192.129 44.1946L193.565 38.8945H195.448Z" fill="#00AEEF"/>
<path d="M202.819 46.7225H198.632L198.028 48.5748H196.08L199.308 38.8945H202.073L205.351 48.5748H203.439L202.819 46.7225ZM202.393 45.3745L200.717 40.3157L199.067 45.3745H202.393Z" fill="#00AEEF"/>
<path d="M207.938 48.5748V38.8945H212.723C213.914 38.8945 214.736 39.1 215.189 39.5125C215.638 39.9234 215.866 40.6706 215.866 41.7477C215.866 42.7299 215.754 43.3992 215.526 43.7572C215.301 44.1168 214.839 44.3643 214.138 44.5028V44.5651C215.212 44.632 215.748 45.2562 215.748 46.4423V48.5748H213.912V46.8112C213.912 45.8135 213.417 45.3154 212.431 45.3154H209.775V48.5748H207.938ZM209.775 43.7728H212.423C213.054 43.7728 213.474 43.6623 213.68 43.435C213.886 43.2093 213.989 42.7579 213.989 42.0793C213.989 41.3881 213.898 40.943 213.72 40.7406C213.542 40.5383 213.152 40.4386 212.551 40.4386H209.771V43.7728H209.775Z" fill="#00AEEF"/>
<path d="M220.716 40.4371V42.9432H225.28V44.2943H220.716V47.0323H225.568V48.5748H218.879V38.8945H225.529V40.4371H220.716Z" fill="#00AEEF"/>
<path d="M27.4822 25.1954L22.4674 36.4136H15.0912L23.5475 16.7931L28.9992 18.0585C31.5589 17.3254 34.3964 16.958 37.5117 16.958C41.3699 16.958 44.3744 17.6725 46.5251 19.1014C49.7153 17.6725 53.8342 16.958 58.8755 16.958C61.9924 16.958 64.6254 17.453 66.7761 18.443C69.186 19.6167 70.394 21.209 70.394 23.2232C70.394 23.9922 70.2083 24.7985 69.8368 25.6421L65.1639 36.4136H57.7783L62.6089 25.6966C62.9382 24.9666 63.1036 24.2677 63.1036 23.6077C63.1036 22.3998 62.6026 21.4363 61.6022 20.7218C60.6002 20.0089 59.3391 19.6509 57.8189 19.6509C53.4784 19.6509 50.4911 21.5017 48.8616 25.2032L43.8547 36.4136H36.4348L41.3855 25.1938C41.6212 24.6802 41.7398 24.1681 41.7398 23.6575C41.7398 22.5243 41.2294 21.5717 40.2087 20.8028C39.188 20.0338 37.9347 19.6509 36.4488 19.6509C32.1442 19.6509 29.1522 21.5001 27.4822 25.1954ZM143.298 16.958L135.007 36.4136C133.633 40.0777 131.021 42.878 127.162 44.8206C123.491 46.69 119.043 47.6239 113.81 47.6239L115.091 44.4921C120.543 44.4921 124.252 42.3301 126.218 38.0059L131.503 26.2461C131.948 25.295 132.172 24.4514 132.172 23.7182C132.172 21.1903 130.064 19.9264 125.848 19.9264C123.262 19.9264 121.025 20.5848 119.138 21.9048C117.439 23.1127 116.198 24.7082 115.424 26.685C115.09 27.4913 114.923 28.2618 114.923 28.995C114.923 30.4239 115.478 31.568 116.583 32.4272C117.69 33.2895 119.092 33.7191 120.785 33.7191C123.334 33.7191 124.439 33.7191 124.106 33.7191L123.215 36.4136H83.7807C80.219 36.4136 77.316 35.7069 75.0716 34.2951C72.8288 32.8864 71.705 31.1181 71.705 28.9934C71.705 28.2603 71.8362 27.5271 72.0968 26.794C73.0973 24.0824 75.3416 21.8021 78.8284 19.9513C82.3136 18.1006 86.3201 17.176 90.8448 17.176C93.8883 17.176 96.4995 17.7068 98.6892 18.7699L98.8016 18.5489C100.172 18.3278 101.545 18.127 102.917 17.9434C105.627 17.467 106.978 17.2133 106.978 17.1744L100.358 31.7937H92.983C92.983 31.8279 93.7759 30.0348 95.3585 26.4111C95.8346 25.3106 96.0734 24.3766 96.0734 23.6061C96.0734 21.2604 93.9601 20.0867 89.7319 20.0867C87.2082 20.0867 85.0044 20.7467 83.1112 22.0667C81.4052 23.2746 80.1629 24.8498 79.384 26.7924C79.0875 27.5987 78.9392 28.3677 78.9392 29.0993C78.9392 30.4924 79.487 31.61 80.5796 32.4521C81.6721 33.2958 83.0753 33.716 84.7812 33.716L110.152 33.7176C108.4 32.3867 107.526 30.7741 107.526 28.8798C107.526 28.1466 107.656 27.4151 107.915 26.6804C108.956 23.933 111.244 21.6262 114.787 19.7552C118.33 17.8873 122.363 16.9518 126.889 16.9518C130.04 16.9518 132.692 17.4842 134.844 18.5457L135.011 18.3247C136.385 18.1052 137.758 17.8842 139.129 17.6663C141.909 17.232 143.298 16.9954 143.298 16.958ZM154.353 7.5346C155.125 8.28331 156.044 8.66 157.114 8.66C158.219 8.66 159.147 8.28331 159.903 7.5346C160.66 6.78278 161.036 5.85662 161.036 4.75924C161.036 3.69611 160.66 2.77929 159.903 2.01191C159.147 1.24141 158.219 0.856934 157.114 0.856934C156.044 0.856934 155.124 1.24141 154.353 2.01191C153.578 2.77929 153.193 3.69611 153.193 4.75924C153.193 5.85818 153.58 6.78278 154.353 7.5346ZM193.298 26.6305C192.966 27.51 192.799 28.3537 192.799 29.1584C192.799 31.2862 193.837 33.0062 195.914 34.3246C198.14 35.682 201.218 36.3591 205.151 36.3591C211.642 36.3591 218.133 36.3591 224.623 36.3591L225.569 33.5557H206.165C204.269 33.5557 202.802 33.1183 201.759 32.2404C200.718 31.3656 200.199 30.2356 200.199 28.8471C200.199 28.1202 200.348 27.3699 200.645 26.6025C201.352 24.7424 202.729 23.1454 204.775 21.813C206.821 20.4821 208.959 19.8175 211.193 19.8175C212.905 19.8175 214.375 20.1786 215.602 20.8993C216.83 21.6184 217.442 22.5913 217.442 23.8116C217.442 24.3673 217.295 24.9386 216.999 25.5332H208.655L207.32 28.3365H223.008L224.01 26.2476C224.455 25.3682 224.676 24.5261 224.676 23.7198C224.676 21.6667 223.518 20.0105 221.2 18.7481C218.883 17.4842 215.908 16.8522 212.273 16.8522C207.561 16.8522 203.472 17.7846 200.005 19.654C196.534 21.5203 194.3 23.8458 193.298 26.6305ZM23.9985 1.13089C22.5876 1.20872 21.1954 1.26631 19.8219 1.30367C16.8814 1.80644 14.9585 3.05636 14.0595 5.05655L0.816406 36.4136H8.94022L23.9985 1.13089ZM164.532 36.4136L169.548 25.1954C171.218 21.5001 174.207 19.6509 178.515 19.6509C180.037 19.6509 181.29 20.0525 182.273 20.8604C183.258 21.6651 183.75 22.6551 183.75 23.8287C183.75 24.4514 183.603 25.074 183.306 25.695L178.537 36.4136H185.922L190.594 25.6421C190.965 24.7969 191.151 23.9906 191.151 23.2232C191.151 21.209 189.946 19.6151 187.535 18.443C185.382 17.453 182.749 16.958 179.635 16.958C176.481 16.958 173.644 17.3254 171.121 18.0585L165.613 16.7931L158.318 33.7191H149.964L157.087 17.9465C155.678 18.0212 154.285 18.0757 152.913 18.113C149.985 18.5893 148.091 19.7801 147.237 21.6838L140.649 36.4136H164.532Z" fill="#444444"/>
</svg>
