<svg width="202" height="43" viewBox="0 0 202 43" fill="none" xmlns="http://www.w3.org/2000/svg">
<path d="M131.537 36.7475H129.928C129.928 36.6708 129.917 36.6051 129.917 36.5723C129.873 36.0905 129.764 35.7839 129.589 35.6525C129.414 35.532 128.987 35.4663 128.33 35.4663C127.553 35.4663 127.039 35.543 126.798 35.6853C126.557 35.8277 126.437 36.1343 126.437 36.5942C126.437 37.1416 126.535 37.4701 126.732 37.5796C126.929 37.6891 127.575 37.7767 128.669 37.8315C129.972 37.9081 130.804 38.0943 131.187 38.3899C131.57 38.6856 131.756 39.3097 131.756 40.2405C131.756 41.4011 131.526 42.1457 131.088 42.4852C130.64 42.8246 129.655 42.9889 128.133 42.9889C126.765 42.9889 125.857 42.8246 125.408 42.4961C124.959 42.1676 124.74 41.4887 124.74 40.4813V40.1638H126.338V40.3499C126.338 40.9631 126.448 41.3354 126.667 41.4668C126.875 41.5982 127.455 41.6749 128.407 41.6749C129.151 41.6749 129.622 41.5982 129.819 41.4449C130.027 41.2916 130.125 40.9303 130.125 40.3499C130.125 39.9339 130.049 39.6492 129.895 39.5178C129.742 39.3754 129.403 39.2988 128.888 39.2659L127.969 39.2112C126.59 39.1345 125.703 38.9374 125.32 38.6308C124.937 38.3352 124.74 37.6782 124.74 36.6927C124.74 35.7072 124.97 34.9955 125.43 34.656C125.889 34.3166 126.82 34.1523 128.199 34.1523C129.512 34.1523 130.399 34.3056 130.848 34.6122C131.307 34.9188 131.526 35.532 131.526 36.419V36.7475H131.537Z" fill="#00ADEE"/>
<path d="M138.072 34.1526C139.659 34.1526 140.677 34.4153 141.126 34.9409C141.585 35.4665 141.804 36.6382 141.804 38.4558C141.804 40.4487 141.574 41.697 141.115 42.2226C140.655 42.7372 139.549 43 137.798 43C136.222 43 135.193 42.7482 134.734 42.2335C134.274 41.7189 134.033 40.5911 134.033 38.85C134.033 36.7805 134.263 35.4775 134.712 34.9409C135.161 34.4044 136.277 34.1416 138.061 34.1416M137.952 35.576C136.846 35.576 136.2 35.7184 136.003 36.0031C135.817 36.2878 135.719 37.2733 135.719 38.9486C135.719 40.1969 135.828 40.9414 136.047 41.1933C136.266 41.4451 136.912 41.5765 137.984 41.5765C139.057 41.5765 139.615 41.4342 139.823 41.1495C140.031 40.8648 140.13 39.9998 140.13 38.5434C140.13 37.0871 140.031 36.233 139.845 35.9702C139.648 35.7074 139.024 35.576 137.952 35.576Z" fill="#00ADEE"/>
<path d="M146.149 35.6084V37.9626H150.045V39.3532H146.149V42.9338H144.496V34.2178H150.275V35.6084H146.149Z" fill="#00ADEE"/>
<path d="M157.007 35.696V42.9338H155.365V35.696H152.848V34.2178H159.612V35.696H157.007Z" fill="#00ADEE"/>
<path d="M174.551 34.218L172.22 42.9231H169.779L168.565 38.4556C168.455 38.0504 168.324 37.5139 168.171 36.835L168.05 36.2985H167.995L167.864 36.835L167.744 37.3715C167.656 37.7329 167.558 38.0942 167.459 38.4556L166.222 42.9231H163.803L161.549 34.218H163.234L164.493 38.9921C164.57 39.2987 164.668 39.7257 164.778 40.2623L164.909 40.8974L165.04 41.5325H165.095C165.161 41.2478 165.215 41.0397 165.248 40.8974L165.401 40.2623C165.478 39.9338 165.598 39.5068 165.741 38.9921L167.076 34.207H169.013L170.316 38.9921C170.425 39.3973 170.535 39.8243 170.644 40.2623L170.786 40.8974L170.94 41.5325H170.994L171.137 40.8974L171.268 40.2623C171.377 39.7476 171.476 39.3206 171.563 38.9812L172.855 34.218H174.54H174.551Z" fill="#00ADEE"/>
<path d="M181.162 41.2585H177.408L176.861 42.9229H175.109L177.999 34.2178H180.483L183.417 42.9229H181.698L181.14 41.2585H181.162ZM180.779 40.054L179.279 35.4989L177.802 40.054H180.79H180.779Z" fill="#00ADEE"/>
<path d="M185.748 42.9346V34.2295H190.038C191.111 34.2295 191.844 34.4156 192.249 34.7879C192.654 35.1602 192.851 35.8282 192.851 36.8027C192.851 37.6896 192.753 38.2919 192.545 38.6094C192.348 38.927 191.932 39.1569 191.297 39.2774V39.3321C192.26 39.3978 192.742 39.9563 192.742 41.0184V42.9346H191.1V41.3469C191.1 40.449 190.662 40.0001 189.776 40.0001H187.39V42.9346H185.748ZM187.401 38.6094H189.776C190.345 38.6094 190.717 38.5109 190.903 38.3028C191.089 38.1057 191.177 37.6896 191.177 37.0874C191.177 36.4852 191.1 36.0691 190.936 35.8829C190.783 35.6968 190.432 35.6092 189.885 35.6092H187.39V38.6094H187.401Z" fill="#00ADEE"/>
<path d="M197.206 35.6084V37.8641H201.3V39.0795H197.206V41.5432H201.562V42.9338H195.564V34.2178H201.529V35.6084H197.206Z" fill="#00ADEE"/>
<path d="M23.9148 21.8997L19.4164 31.9954H12.8056L20.3905 14.3443L25.2829 15.4831C27.5813 14.8261 30.1205 14.4976 32.9115 14.4976C36.3701 14.4976 39.0626 15.1436 40.9889 16.4248C43.8565 15.1436 47.5449 14.4976 52.0652 14.4976C54.8562 14.4976 57.2203 14.9465 59.1466 15.8335C61.3028 16.8846 62.3863 18.3191 62.3863 20.1367C62.3863 20.8266 62.2221 21.5493 61.8828 22.3158L57.6909 32.0064H51.0692L55.4034 22.3705C55.6989 21.7135 55.8522 21.0894 55.8522 20.4871C55.8522 19.4031 55.4034 18.5381 54.5059 17.892C53.6084 17.246 52.4811 16.9284 51.113 16.9284C47.2166 16.9284 44.546 18.5928 43.0794 21.9216L38.5919 32.0064H31.9374L36.3811 21.9106C36.589 21.4507 36.6985 20.9908 36.6985 20.5309C36.6985 19.5126 36.2388 18.6585 35.3194 17.9577C34.4 17.2679 33.2836 16.9175 31.9484 16.9175C28.0848 16.9175 25.4033 18.5819 23.9038 21.9106M127.782 14.4866L120.351 31.9845C119.125 35.2804 116.772 37.7988 113.313 39.5508C110.019 41.2371 106.035 42.0693 101.339 42.0693L102.489 39.2552C107.381 39.2552 110.708 37.3061 112.47 33.4189L117.21 22.8414C117.615 21.9873 117.812 21.2208 117.812 20.5638C117.812 18.2862 115.918 17.1584 112.142 17.1584C109.822 17.1584 107.819 17.7497 106.122 18.9323C104.601 20.0163 103.485 21.4507 102.795 23.2355C102.5 23.9582 102.346 24.6481 102.346 25.316C102.346 26.5971 102.85 27.6264 103.835 28.4039C104.831 29.1813 106.09 29.5646 107.6 29.5646H110.577L109.778 31.9845H74.4148C71.2189 31.9845 68.614 31.3494 66.6001 30.0792C64.5862 28.809 63.5793 27.2213 63.5793 25.3051C63.5793 24.6481 63.6997 23.9801 63.9295 23.3231C64.827 20.8813 66.8409 18.8337 69.9712 17.1693C73.1014 15.505 76.6914 14.6728 80.752 14.6728C83.4773 14.6728 85.8195 15.1546 87.7896 16.1072L87.8881 15.9101C89.1139 15.713 90.3507 15.5269 91.5765 15.3626C94.0063 14.9356 95.2212 14.7056 95.2212 14.6728L89.289 27.8235H82.6783C82.6783 27.8235 83.3897 26.2468 84.8125 22.9837C85.2394 21.9982 85.4583 21.1551 85.4583 20.4652C85.4583 18.3519 83.5648 17.3007 79.7669 17.3007C77.5013 17.3007 75.5312 17.892 73.8238 19.0856C72.2915 20.1696 71.1861 21.5931 70.4856 23.3341C70.2229 24.0568 70.0806 24.7466 70.0806 25.4146C70.0806 26.6628 70.5731 27.6702 71.5582 28.4258C72.5432 29.1813 73.791 29.5646 75.3233 29.5646H98.0778C96.5127 28.371 95.7247 26.9147 95.7247 25.2175C95.7247 24.5605 95.8451 23.9035 96.0749 23.2355C97.0052 20.7609 99.0629 18.6914 102.237 17.0051C105.411 15.3298 109.034 14.4866 113.094 14.4866C115.918 14.4866 118.304 14.9684 120.23 15.9211L120.384 15.724C121.62 15.5269 122.846 15.3298 124.072 15.1327C126.568 14.7385 127.815 14.5195 127.815 14.4866M137.699 6.01146C138.388 6.6794 139.22 7.02979 140.172 7.02979C141.124 7.02979 142 6.69035 142.679 6.01146C143.357 5.33257 143.696 4.50038 143.696 3.5149C143.696 2.52941 143.357 1.73007 142.679 1.04023C142 0.350395 141.168 0 140.172 0C139.176 0 138.388 0.350395 137.699 1.04023C137.009 1.73007 136.659 2.55131 136.659 3.5149C136.659 4.47848 137.009 5.33257 137.699 6.01146ZM172.624 23.1917C172.328 23.9801 172.175 24.7466 172.175 25.4693C172.175 27.3855 173.106 28.9295 174.966 30.112C176.958 31.3384 179.727 31.9407 183.252 31.9407H200.72L201.573 29.4222H184.171C182.474 29.4222 181.15 29.028 180.22 28.2396C179.289 27.4512 178.819 26.4329 178.819 25.1846C178.819 24.5276 178.95 23.8597 179.224 23.1698C179.859 21.4945 181.095 20.0601 182.923 18.8666C184.762 17.673 186.677 17.0708 188.68 17.0708C190.213 17.0708 191.537 17.3993 192.631 18.0453C193.737 18.6914 194.284 19.5674 194.284 20.6623C194.284 21.166 194.153 21.6807 193.89 22.2063H186.404L185.211 24.7247H199.275L200.172 22.8414C200.566 22.053 200.774 21.2974 200.774 20.5638C200.774 18.7133 199.735 17.2241 197.655 16.0963C195.576 14.9575 192.905 14.3881 189.643 14.3881C185.419 14.3881 181.752 15.2312 178.644 16.9065C175.535 18.5928 173.532 20.6842 172.635 23.1917M20.7954 0.251846C19.5258 0.317545 18.2781 0.372294 17.0523 0.405144C14.4145 0.854087 12.6962 1.98192 11.8862 3.77769L0 31.9845H7.28935L20.7954 0.251846ZM146.827 31.9845L151.325 21.8887C152.825 18.56 155.506 16.8956 159.37 16.8956C160.738 16.8956 161.854 17.2569 162.741 17.9796C163.627 18.7023 164.065 19.6002 164.065 20.6514C164.065 21.2098 163.934 21.7683 163.671 22.3267L159.392 31.9735H166.013L170.205 22.2829C170.534 21.5274 170.709 20.7937 170.709 20.1039C170.709 18.2972 169.625 16.8627 167.469 15.8006C165.543 14.9137 163.178 14.4647 160.388 14.4647C157.597 14.4647 155.014 14.7932 152.748 15.4502L147.812 14.3114L141.267 29.5427H133.769L140.161 15.3517C138.903 15.4174 137.655 15.4721 136.418 15.505C133.791 15.932 132.095 17.0051 131.329 18.7133L125.418 31.9626H146.838" fill="white"/>
</svg>
